<svg width="51" height="51" viewBox="0 0 51 51" fill="none" xmlns="http://www.w3.org/2000/svg">
<mask id="mask0_209_198" style="mask-type:alpha" maskUnits="userSpaceOnUse" x="0" y="0" width="51" height="51">
<rect width="51" height="51" fill="#D9D9D9"/>
</mask>
<g mask="url(#mask0_209_198)">
<path d="M25.5 42.5C23.8 41.1542 21.9583 40.1094 19.975 39.3656C17.9917 38.6219 15.9375 38.25 13.8125 38.25C12.325 38.25 10.8641 38.4448 9.42969 38.8344C7.99531 39.224 6.62292 39.7729 5.3125 40.4813C4.56875 40.8708 3.85156 40.8531 3.16094 40.4281C2.47031 40.0031 2.125 39.3833 2.125 38.5687V12.9625C2.125 12.5729 2.2224 12.201 2.41719 11.8469C2.61198 11.4927 2.90417 11.2271 3.29375 11.05C4.92292 10.2 6.62292 9.5625 8.39375 9.1375C10.1646 8.7125 11.9708 8.5 13.8125 8.5C15.8667 8.5 17.8766 8.76562 19.8422 9.29688C21.8078 9.82812 23.6938 10.625 25.5 11.6875V37.4C27.3062 36.2667 29.201 35.4167 31.1844 34.85C33.1677 34.2833 35.1688 34 37.1875 34C38.4625 34 39.7109 34.1063 40.9328 34.3188C42.1547 34.5312 43.3854 34.85 44.625 35.275V9.775C45.1562 9.95208 45.6786 10.138 46.1922 10.3328C46.7057 10.5276 47.2104 10.7667 47.7063 11.05C48.0958 11.2271 48.388 11.4927 48.5828 11.8469C48.7776 12.201 48.875 12.5729 48.875 12.9625V38.5687C48.875 39.3833 48.5297 40.0031 47.8391 40.4281C47.1484 40.8531 46.4313 40.8708 45.6875 40.4813C44.3771 39.7729 43.0047 39.224 41.5703 38.8344C40.1359 38.4448 38.675 38.25 37.1875 38.25C35.0625 38.25 33.0083 38.6219 31.025 39.3656C29.0417 40.1094 27.2 41.1542 25.5 42.5ZM29.75 31.875V11.6875L40.375 1.0625V22.3125L29.75 31.875Z" fill="#C3BDA5"/>
</g>
</svg>
