<svg width="58" height="58" viewBox="0 0 58 58" fill="none" xmlns="http://www.w3.org/2000/svg">
<mask id="mask0_229_90" style="mask-type:alpha" maskUnits="userSpaceOnUse" x="0" y="0" width="58" height="58">
<rect width="58" height="58" fill="#D9D9D9"/>
</mask>
<g mask="url(#mask0_229_90)">
<path d="M10.6333 50.7502L7.25 47.3668L25.4354 29.121L14.5 26.4022L26.4625 18.971L25.4354 4.8335L36.25 13.9564L49.3 8.63975L44.0438 21.7502L53.1667 32.5043L39.0292 31.5377L31.5375 43.5002L28.8188 32.5647L10.6333 50.7502ZM12.0833 19.3335L7.25 14.5002L12.0833 9.66683L16.9167 14.5002L12.0833 19.3335ZM33.5312 31.2356L36.4312 26.4627L42.05 26.8856L38.425 22.596L40.5396 17.4002L35.3438 19.5147L31.0542 15.9502L31.4771 21.5085L26.7042 24.4689L32.1417 25.7981L33.5312 31.2356ZM43.5 50.7502L38.6667 45.9168L43.5 41.0835L48.3333 45.9168L43.5 50.7502Z" fill="#F6E9C8"/>
</g>
</svg>
